<?xml version="1.0" encoding="utf-8"?>
<!-- Generator: Adobe Illustrator 16.0.0, SVG Export Plug-In . SVG Version: 6.00 Build 0)  -->
<!DOCTYPE svg PUBLIC "-//W3C//DTD SVG 1.1//EN" "http://www.w3.org/Graphics/SVG/1.1/DTD/svg11.dtd">
<svg version="1.1" id="Capa_1" xmlns="http://www.w3.org/2000/svg" xmlns:xlink="http://www.w3.org/1999/xlink" x="0px" y="0px"
	 width="94.333px" height="50px" viewBox="-22.833 0 94.333 50" enable-background="new -22.833 0 94.333 50" xml:space="preserve">
<g>
	<path fill="#0391FD" d="M58.729,2.799h-69.792c-3.958,0-7.271,1.963-7.271,4.31v28.448c0,2.348,3.313,4.311,7.271,4.311H8.68
		l-4.832-2.835c-0.571-0.336-0.575-0.881-0.01-1.221c0.565-0.338,1.483-0.341,2.057-0.006l5.877,3.449
		c0.01,0.006,0.015,0.015,0.025,0.021c0.01,0.006,0.023,0.008,0.034,0.014l12.002,7.91l12.006-7.909
		c0.044-0.029,0.104-0.043,0.153-0.067l5.823-3.417c0.572-0.335,1.491-0.331,2.057,0.007c0.563,0.338,0.561,0.884-0.01,1.219
		l-4.832,2.836h19.699c3.959,0,7.271-1.963,7.271-4.311V7.11C66,4.763,62.688,2.799,58.729,2.799z"/>
</g>
</svg>
