<svg xmlns="http://www.w3.org/2000/svg" style="display: none;"><symbol id="interface" viewBox="0 0 58 58"><title>interface</title><path style="fill:#0391FD;" d="M53,3.247H5c-2.722,0-5,2.277-5,5v33c0,2.723,2.278,5,5,5h13.578l-3.323-3.289 c-0.393-0.389-0.396-1.022-0.007-1.415c0.389-0.392,1.021-0.396,1.415-0.007l4.042,4c0.007,0.007,0.01,0.018,0.017,0.025 c0.007,0.007,0.016,0.01,0.023,0.017L29,54.753l8.257-9.174c0.031-0.034,0.072-0.05,0.106-0.079l4.004-3.963 c0.394-0.388,1.026-0.384,1.415,0.007c0.388,0.393,0.385,1.026-0.007,1.415l-3.324,3.289H53c2.722,0,5-2.277,5-5v-33 C58,5.525,55.722,3.247,53,3.247z"/></symbol></svg>